<?xml version="1.0" encoding="UTF-8"?>
<svg id="Layer_2" data-name="Layer 2" xmlns="http://www.w3.org/2000/svg" viewBox="0 0 277 250">
  <defs>
    <style>
      .cls-1 {
        fill: #fb7643;
      }

      .cls-1, .cls-2, .cls-3, .cls-4 {
        stroke-width: 0px;
      }

      .cls-2 {
        fill: #192325;
      }

      .cls-3 {
        fill: #fff;
      }

      .cls-4 {
        fill: #231f20;
      }
    </style>
  </defs>
  <g id="Layer_1-2" data-name="Layer 1">
    <g>
      <rect class="cls-3" width="277" height="250" rx="29.42" ry="29.42"/>
      <path class="cls-4" d="M159.01,80.41c-1.27-1.33-2.7-2.62-4.27-3.82-.27-.2-.65-.16-.88.08-.01.02-.03.03-.04.05,1.89,1.27,3.64,2.75,5.29,4.46.13-.24.12-.56-.1-.78Z"/>
      <g>
        <path class="cls-2" d="M164.01,13.87c-18.6-5.12-39.48-4.14-62.64,2.94l-29.76,181.46,17.72,41.07,54.81-23.65-23.5-54.46c1.26.83,2.88,1.07,4.41.52,1.83-.67,3.68-1.34,5.52-2l22.71,52.64c7.71-2.9,13.23-5.08,16.56-6.51,28.34-12.23,47.72-31.04,58.1-56.44,10.39-25.4,9.57-52.06-2.47-79.95-12.58-29.16-33.07-47.69-61.47-55.62ZM134.97,71.61c4.82.74,5.46,2.34,10.42,2.99,3.01.4,5.71.19,7.88-.18.18-.03.33-.13.41-.25.4.24.79.5,1.17.77-.47.52-1.06,1.07-1.78,1.6-3.82,2.79-7.67,2.17-14.2,2.38-6.72.21-12.32.42-17.66,3.13-2.64,1.32-4.62,2.96-6,4.31-.39.38-1.04.14-1.11-.39-.12-1.08-.12-2.44.25-3.95,1.06-4.48,4.59-6.91,5.79-7.75,5.83-4.03,12.75-2.97,14.84-2.66ZM105.82,83.43c1.06-4.69,4.01-7.59,5.62-8.87.4-.33,1-.08,1.06.44.3,2.67.37,6.65-.93,11.2-.9,3.14-2.2,5.66-3.36,7.51-.28.44-.91.41-1.14-.05-.89-1.82-2.29-5.59-1.26-10.23ZM97.5,107.62s.03-.01.03-.03c.23-.31.53-.57.88-.75,2.26-1.16,5.21-2.99,8.16-5.77,2.17-2.04,3.78-4.07,4.96-5.79.06-.09.14-.16.23-.21.34-.18.72-.34,1.15-.49,1.21-.37,2.36-.32,3.25-.16.57.11.74.85.25,1.19-.52.34-1.12.77-1.77,1.22-2.21,1.56-4.36,3.28-8.54,6.68-.63.51-1.63,1.33-2.66,2.65-.67.84-1.12,1.6-1.39,2.09-.21.25-.71.91-.74,1.82-.03,1.18.76,2.31,2.01,2.87.21.09.52.22.91.36,0,0,2.11.77,4.3,1.14,3.51.6,7.38-.52,7.5-.24.08.23-2.44,1.3-12.53,4.71-.32.11-.67-.05-.81-.36l-2.36-5.46c-.08-.19-.21-.37-.38-.5-.12-.1-.26-.14-.39-.14l-2.09-4.84ZM112.31,134.14c-1.37-.79-3.2-2.14-4.73-4.3-1.23-1.74-1.88-3.44-2.22-4.73.3-.35.39-.47.7-.82,2.7.3,4.62-.29,5.66-.73,5.09-2.1,8.38-8.2,8.23-15.42-.01-.43.41-.76.84-.63,1.21.36,3.01,1.12,4.25,2.83,2.19,3.02,1.74,7.83-1.42,11.63-.16.2-.44.28-.69.2-2.57-.7-4.29-.09-4.89.17-3.36,1.42-5.48,5.91-4.76,11.15.07.54-.5.93-.97.66ZM127.35,150.67c.19.61-.52,1.1-1.02.7-.64-.49-1.29-1.1-1.89-1.86-4.71-5.89-2.18-15.22-.94-19.81,1.12-4.12,3.04-8.86,4.36-14.6.22-1,.73-3.26.38-6.16-.2-1.72-.63-3.1-.98-4.03l-.03-.06c-.49-1-1.22-2.22-2.26-3.48-.67-.81-1.35-1.48-1.97-2.04-.33-.29-.27-.83.11-1.05,2.08-1.19,7.47-3.74,12.76-1.62,4.62,1.85,7.69,6.66,7.02,7.45-.2.24-.83.23-2.46-.52-.61-.28-1.2.44-.79.99,2.57,3.42,3.23,6.35,3.31,8.5.42,11.96-16.56,18.49-16.41,32.53.02,1.97.38,3.7.79,5.07ZM148.59,127.87c-2.43,3.2-6.11,8.93-7.93,16.89-.8,3.46-1.07,6.61-1.08,9.33-.29.14-.58.26-.88.39l-2.75,1.18c-1.85-1.79-3.74-4.32-4.56-7.66-.94-3.84-.04-7.06.59-9.23,3.26-11.2,12.44-13.68,13.63-23.1.23-1.84.1-3.48-.13-4.78-.1-.61.62-1.02,1.08-.61,1.35,1.19,3.13,3.22,3.99,6.25,1.66,5.85-1.49,10.63-1.96,11.32ZM162.06,122.05c-.55,3.88-1.47,7.08-2.26,9.37-.13.38-.58.55-.92.36-.44-.24-.94-.58-1.43-1.01-1.06-.95-1.75-2.1-2.28-3.51-1.11-3.05-.85-5.91-.79-7.14.22-5.22-2.24-9.51-3.61-11.91-3.53-6.14-7.88-6.83-9.48-13.13-.19-.78-.3-1.46-.37-2.02-.06-.41.29-.77.7-.73,2.3.21,5.87.84,9.65,2.93,1.51.84,7.06,4.03,9.94,10.69,2.33,5.43,1.66,10.32.86,16.1ZM173.82,116.09c.08-2.15,0-4.18-.21-6.09-.03-.28-.23-.5-.5-.56-1.37-.33-2.81-.83-4.23-1.56-5.85-3.03-5.7-7.1-12.04-12.02-2.86-2.22-8.07-6.26-14.89-6.3-2.64-.01-11.53.54-15.66.77-.38.02-1.93.08-3.38-.79-.53-.32-1.75-1.07-1.73-2.25,0-.97.82-1.91,2.02-2.37,1.57-.57,3.61-1.24,6.05-1.86,0,0,3.16-.8,6.32-1.23,9.46-1.3,13.47,1.5,20.33-.52,1.03-.3,2.41-.8,4-1.67.11-.06.19-.15.26-.24,3.61,3.74,6.67,8.51,9.18,14.33,3.47,8.04,4.98,15.5,4.5,22.37Z"/>
        <path class="cls-1" d="M80.69,68.33l-12.7,77.38-26.16-60.62,37.92-16.36c.31-.13.62-.27.93-.39Z"/>
      </g>
    </g>
  </g>
</svg>